<svg fill="none" height="40" viewBox="0 0 40 40" width="40" xmlns="http://www.w3.org/2000/svg"><path d="m6.6666 21.6666c-.16262-.5691-.29342-1.1247-.39406-1.6666m-.24629-3.3334c.05595-1.2065.27814-2.3254.64035-3.3544m1.86297-3.31224c.61505-.75468 1.32423-1.42914 2.10633-2.02156m3.1744-1.80895c1.0008-.41792 2.056-.73817 3.1392-.95849m3.4571-.36075c1.1442-.00928 2.2888.08962 3.405.29913m3.3688 1.02011c1.005.43421 1.9539.97712 2.8195 1.63103m2.5 2.53862c.303.4179.5817.8603.8333 1.3275.2597.4823.4797.9612.6624 1.436m.6839 3.0068c.0683.964-.0106 1.9004-.2146 2.8006m-1.1317 2.888c-.4611.8144-1.0242 1.5824-1.6667 2.2952m-2.3725 2.136c-.7509.5528-1.5513 1.0469-2.3818 1.4751m-12.2974.887c.4158.2176.8942.4115 1.4402.5753.3949.1185.803.2108 1.2215.278.5685.0912 1.1378-.1701 1.4206-.6716.484-.8585.7527-1.7248.8423-2.5438m-.9844-3.5785c-.4444-.5047-1.0137-.8535-1.6667-.9841-.5172-.1034-1.0203-.096-1.4922 0m-2.8969 4.7362c-.3689-.9918-.1965-2.0438.3281-2.9104m3.0059 8.7379c-.9684.6006-2.1199 1.1424-3.475 1.5945m-3.79035.9195c-.60567.1003-1.23916.1859-1.9014.2556m17.50005-6.1574c-.6938.2211-1.3935.3954-2.0893.5191" stroke="#000" stroke-linecap="round" stroke-linejoin="round" stroke-width="2"/></svg>